<svg width="210" height="70" viewBox="0 0 210 70" fill="none" xmlns="http://www.w3.org/2000/svg">
<g clip-path="url(#clip0_5_31)">
<path d="M71.09 20.74C70.93 20.57 70.76 20.4 70.59 20.24C70.42 20.08 70.26 19.9 70.09 19.74C69.92 19.58 69.76 19.4 69.59 19.24C69.42 19.08 69.26 18.9 69.09 18.74C68.92 18.58 68.76 18.4 68.59 18.24C68.42 18.08 68.26 17.9 68.09 17.74C67.92 17.58 67.76 17.4 67.59 17.24C72.5502 22.1147 75.3917 28.7463 75.5 35.7C75.5 52.27 58.68 65.75 38 65.75C26.42 65.75 16.06 61.52 9.17 54.89L9.67 55.39L10.17 55.89L10.67 56.39L11.17 56.89L11.67 57.39L12.17 57.89L12.67 58.39C19.55 65.3 30.14 69.75 42 69.75C62.68 69.75 79.5 56.27 79.5 39.75C79.5 32.69 76.46 26 71.09 20.74Z" fill="black"/>
<path d="M73 35.7C73 50.91 57.33 63.24 38 63.24C18.67 63.24 3 50.91 3 35.7C3 26.27 9 17.94 18.22 13C27.44 8.06 33.18 3 38 3C42.82 3 46.94 7.13 57.78 13C67 17.94 73 26.27 73 35.7Z" fill="#FBF0DF"/>
<path d="M73 35.7C72.9951 33.7461 72.726 31.8018 72.2 29.92C69.47 63.22 28.85 64.82 12.88 54.86C20.059 60.4244 28.9181 63.3797 38 63.24C57.3 63.24 73 50.89 73 35.7Z" fill="#F6DECE"/>
<path d="M24.53 11.17C29 8.49 34.94 3.46 40.78 3.45C39.8816 3.1596 38.9442 3.00786 38 3C35.58 3 33 4.25 29.75 6.13C28.62 6.79 27.45 7.52 26.21 8.28C23.88 9.72 21.21 11.35 18.21 12.98C8.69 18.13 3 26.62 3 35.7C3 36.1 3 36.5 3 36.89C9.06 15.48 20.07 13.85 24.53 11.17Z" fill="#FFFEFC"/>
<path fill-rule="evenodd" clip-rule="evenodd" d="M35.12 5.53C35.134 7.89122 34.6382 10.2277 33.6666 12.3797C32.695 14.5318 31.2703 16.4489 29.49 18C29.21 18.25 29.43 18.73 29.79 18.59C33.16 17.28 37.71 13.36 35.79 5.45C35.71 5 35.12 5.12 35.12 5.53ZM37.39 5.53C38.6136 7.52643 39.391 9.76384 39.6689 12.0888C39.9467 14.4138 39.7186 16.7714 39 19C38.88 19.35 39.31 19.65 39.55 19.36C41.74 16.56 43.65 11 37.93 5C37.64 4.74 37.19 5.14 37.39 5.49V5.53ZM40.15 5.36C42.0661 6.71655 43.6691 8.46823 44.8507 10.4969C46.0324 12.5256 46.7653 14.784 47 17.12C46.9899 17.2042 47.0125 17.289 47.0633 17.3569C47.114 17.4249 47.189 17.4706 47.2726 17.4848C47.3562 17.4989 47.442 17.4804 47.5123 17.4329C47.5825 17.3855 47.6319 17.3128 47.65 17.23C48.57 13.74 48.05 7.79 40.48 4.7C40.08 4.54 39.82 5.08 40.15 5.32V5.36ZM21.69 15.76C23.9693 15.0791 26.0796 13.9257 27.8835 12.3751C29.6874 10.8244 31.1446 8.91119 32.16 6.76C32.34 6.4 32.91 6.54 32.82 6.94C31.09 14.94 25.3 16.61 21.7 16.39C21.32 16.4 21.33 15.87 21.69 15.76Z" fill="#CCBEA7"/>
<path d="M38 65.75C17.32 65.75 0.5 52.27 0.5 35.7C0.5 25.7 6.68 16.37 17.03 10.78C20.03 9.18 22.6 7.57 24.89 6.16C26.15 5.38 27.34 4.65 28.49 3.97C32 1.89 35 0.5 38 0.5C41 0.5 43.62 1.7 46.9 3.64C47.9 4.21 48.9 4.83 49.97 5.51C52.46 7.05 55.27 8.79 58.97 10.78C69.32 16.37 75.5 25.69 75.5 35.7C75.5 52.27 58.68 65.75 38 65.75ZM38 3C35.58 3 33 4.25 29.75 6.13C28.62 6.79 27.45 7.52 26.21 8.28C23.88 9.72 21.21 11.35 18.21 12.98C8.69 18.13 3 26.62 3 35.7C3 50.89 18.7 63.25 38 63.25C57.3 63.25 73 50.89 73 35.7C73 26.62 67.31 18.13 57.78 13C54 11 51.05 9.12 48.66 7.64C47.57 6.97 46.57 6.35 45.66 5.8C42.63 4 40.42 3 38 3Z" fill="black"/>
<path d="M45.05 43C44.6008 44.8399 43.5782 46.4894 42.13 47.71C41.0428 48.7639 39.6353 49.4255 38.13 49.59C36.5795 49.4515 35.1226 48.7884 34 47.71C32.5666 46.4836 31.5584 44.8348 31.12 43C31.1055 42.8911 31.1161 42.7803 31.151 42.6761C31.1859 42.5719 31.2442 42.477 31.3214 42.3989C31.3986 42.3207 31.4927 42.2612 31.5965 42.225C31.7002 42.1888 31.8109 42.1768 31.92 42.19H44.26C44.3683 42.1785 44.4778 42.1917 44.5803 42.2286C44.6828 42.2656 44.7756 42.3253 44.8516 42.4032C44.9277 42.4812 44.985 42.5755 45.0194 42.6788C45.0538 42.7822 45.0642 42.892 45.05 43Z" fill="#B71422"/>
<path d="M34 47.79C35.1203 48.869 36.572 49.5384 38.12 49.69C39.6645 49.5362 41.1123 48.867 42.23 47.79C42.5875 47.4567 42.9217 47.0992 43.23 46.72C42.614 46.0211 41.8615 45.4557 41.0188 45.0584C40.1761 44.6612 39.2611 44.4405 38.33 44.41C37.3337 44.4336 36.3581 44.6989 35.4871 45.1832C34.6161 45.6675 33.8758 46.3562 33.33 47.19C33.56 47.4 33.76 47.6 34 47.79Z" fill="#FF6164"/>
<path d="M34.16 47C34.6558 46.3592 35.2904 45.8391 36.0161 45.4788C36.7418 45.1185 37.5398 44.9275 38.35 44.92C39.8476 44.9642 41.2744 45.567 42.35 46.61C42.58 46.36 42.8 46.1 43.01 45.84C41.7378 44.6284 40.0566 43.9395 38.3 43.91C37.3613 43.9181 36.436 44.1339 35.5905 44.5419C34.745 44.95 34.0004 45.5401 33.41 46.27C33.6464 46.5269 33.8968 46.7706 34.16 47Z" fill="black"/>
<path d="M38.09 50.19C36.4236 50.044 34.8555 49.3392 33.64 48.19C32.0921 46.8808 31.0025 45.1115 30.53 43.14C30.4961 42.9645 30.5019 42.7836 30.5469 42.6106C30.5918 42.4376 30.6749 42.2768 30.79 42.14C30.927 41.9745 31.1001 41.8425 31.2959 41.7541C31.4918 41.6658 31.7052 41.6233 31.92 41.63H44.26C44.4744 41.6255 44.6872 41.6689 44.8827 41.7572C45.0782 41.8454 45.2515 41.9762 45.39 42.14C45.504 42.2773 45.5856 42.4384 45.6289 42.6115C45.6722 42.7846 45.676 42.9652 45.64 43.14C45.1675 45.1115 44.0779 46.8808 42.53 48.19C41.3171 49.3372 39.7529 50.0418 38.09 50.19ZM31.92 42.79C31.76 42.79 31.72 42.86 31.71 42.88C32.1327 44.5897 33.0889 46.1203 34.44 47.25C35.428 48.2233 36.7125 48.8392 38.09 49C39.464 48.841 40.747 48.2329 41.74 47.27C43.0869 46.1384 44.0393 44.6081 44.46 42.9C44.4382 42.868 44.408 42.8427 44.3727 42.8268C44.3374 42.8109 44.2984 42.8051 44.26 42.81L31.92 42.79Z" fill="black"/>
<path d="M53.22 43.62C56.4509 43.62 59.07 42.0799 59.07 40.18C59.07 38.2801 56.4509 36.74 53.22 36.74C49.9891 36.74 47.37 38.2801 47.37 40.18C47.37 42.0799 49.9891 43.62 53.22 43.62Z" fill="#FEBBD0"/>
<path d="M22.95 43.62C26.1809 43.62 28.8 42.0799 28.8 40.18C28.8 38.2801 26.1809 36.74 22.95 36.74C19.7191 36.74 17.1 38.2801 17.1 40.18C17.1 42.0799 19.7191 43.62 22.95 43.62Z" fill="#FEBBD0"/>
<path fill-rule="evenodd" clip-rule="evenodd" d="M25.7 38.8C26.7902 38.802 27.8565 38.4805 28.7639 37.8763C29.6713 37.272 30.3791 36.4122 30.7977 35.4055C31.2163 34.3989 31.3268 33.2907 31.1153 32.2212C30.9039 31.1517 30.3799 30.169 29.6097 29.3974C28.8395 28.6258 27.8577 28.1 26.7886 27.8866C25.7195 27.6732 24.6111 27.7817 23.6037 28.1985C22.5963 28.6152 21.7352 29.3214 21.1293 30.2278C20.5234 31.1341 20.2 32.1998 20.2 33.29C20.2 34.7496 20.7791 36.1496 21.8103 37.1826C22.8415 38.2157 24.2404 38.7974 25.7 38.8ZM50.47 38.8C51.5614 38.8079 52.6307 38.4915 53.542 37.8909C54.4534 37.2903 55.1658 36.4325 55.589 35.4264C56.0122 34.4204 56.127 33.3112 55.919 32.2398C55.7109 31.1683 55.1893 30.1828 54.4203 29.4082C53.6514 28.6336 52.6697 28.1048 51.5997 27.889C50.5298 27.6731 49.4199 27.7799 48.4108 28.1957C47.4016 28.6115 46.5387 29.3177 45.9315 30.2247C45.3242 31.1317 45 32.1985 45 33.29C44.9973 34.7452 45.5715 36.1422 46.5968 37.175C47.622 38.2077 49.0148 38.7921 50.47 38.8Z" fill="black"/>
<path fill-rule="evenodd" clip-rule="evenodd" d="M24 33.64C24.4098 33.642 24.811 33.5223 25.1527 33.296C25.4945 33.0698 25.7613 32.7472 25.9195 32.3691C26.0778 31.991 26.1202 31.5745 26.0414 31.1723C25.9627 30.7701 25.7663 30.4004 25.4773 30.1099C25.1882 29.8194 24.8193 29.6212 24.4175 29.5405C24.0157 29.4599 23.599 29.5003 23.2202 29.6566C22.8413 29.813 22.5175 30.0783 22.2896 30.4189C22.0617 30.7596 21.94 31.1602 21.94 31.57C21.94 32.1173 22.1567 32.6423 22.5427 33.0302C22.9288 33.4181 23.4527 33.6374 24 33.64ZM48.77 33.64C49.1798 33.642 49.581 33.5223 49.9227 33.296C50.2645 33.0698 50.5313 32.7472 50.6895 32.3691C50.8478 31.991 50.8902 31.5745 50.8114 31.1723C50.7327 30.7701 50.5363 30.4004 50.2472 30.1099C49.9582 29.8194 49.5893 29.6212 49.1875 29.5405C48.7857 29.4599 48.369 29.5003 47.9902 29.6566C47.6113 29.813 47.2875 30.0783 47.0596 30.4189C46.8317 30.7596 46.71 31.1602 46.71 31.57C46.7099 32.1138 46.9239 32.6359 47.3056 33.0232C47.6874 33.4106 48.2062 33.6321 48.75 33.64H48.77Z" fill="white"/>
</g>
<g clip-path="url(#clip1_5_31)">
<mask id="mask0_5_31" style="mask-type:luminance" maskUnits="userSpaceOnUse" x="89" y="12" width="121" height="45">
<path d="M89 12H210V57H89V12Z" fill="white"/>
</mask>
<g mask="url(#mask0_5_31)">
<path d="M117.675 53.1906C106.545 53.1906 100.412 51.6437 100.136 51.3001C99.8261 41.7586 99.8261 32.2095 100.136 22.6679C100.412 22.3588 106.511 21.2242 117.675 21.2242C128.046 21.2242 132.009 25.0395 132.009 29.6114C132.009 32.5671 130.217 35.2482 126.634 36.795V37.3106C130.941 37.6201 133.043 40.4383 133.043 43.635C133.043 48.5505 128.047 53.1906 117.675 53.1906ZM110.611 35.3857L117.33 35.4202C119.535 35.0766 121.017 33.8734 121.017 32.0174C121.017 29.68 119.26 28.4082 116.124 28.4082C113.437 28.4082 111.404 28.8548 110.646 29.4394C110.611 31.3988 110.611 33.4259 110.611 35.3857ZM116.159 45.2508C119.294 45.2508 121.189 43.8415 121.189 41.4355C121.189 39.4761 119.639 38.3073 117.33 38.2388L110.611 38.2043C110.611 40.1978 110.611 42.1912 110.646 44.151C111.369 44.7693 113.437 45.2508 116.159 45.2508ZM165.428 27.205C165.703 35.5573 165.703 43.4975 165.428 51.6782C162.258 52.1938 158.881 52.1938 155.711 51.6782L154.746 45.8694H154.126C152.885 50.9221 150.198 52.5034 146.028 52.5034C137.586 52.5034 136.036 45.6289 136.036 37.1731C136.036 35.0421 136.104 32.1205 136.104 27.205C139.829 26.655 143.613 26.655 147.338 27.205V39.4416C147.338 42.9478 149.129 44.2536 151.266 44.2536C152.782 44.2536 154.367 43.4975 155.16 42.2257V27.205C158.56 26.655 162.027 26.655 165.428 27.205ZM169.69 51.6782C169.414 43.3259 169.414 35.3857 169.69 27.205C172.86 26.6893 176.236 26.6893 179.407 27.205L180.371 33.0142H180.992C182.232 27.9615 184.92 26.3802 189.089 26.3802C197.532 26.3802 199.082 33.2547 199.082 41.7101C199.082 43.8415 199.013 46.7631 199.013 51.6782C195.289 52.2282 191.504 52.2282 187.78 51.6782V39.4416C187.78 35.9358 185.988 34.6295 183.852 34.6295C182.336 34.6295 180.75 35.3857 179.958 36.6575V51.6782C176.557 52.2282 173.09 52.2282 169.69 51.6782Z" fill="#FBF0DF"/>
</g>
</g>
<defs>
<clipPath id="clip0_5_31">
<rect width="80" height="70" fill="white"/>
</clipPath>
<clipPath id="clip1_5_31">
<rect width="121" height="45" fill="white" transform="translate(89 12)"/>
</clipPath>
</defs>
</svg>
