<svg xmlns="http://www.w3.org/2000/svg" xmlns:xlink="http://www.w3.org/1999/xlink" xmlns:serif="http://www.serif.com/" width="100%" height="100%" viewBox="0 0 180 271" version="1.1" xml:space="preserve" style="fill-rule:evenodd;clip-rule:evenodd;stroke-linejoin:round;">
    <g id="Group" transform="matrix(1,0,0,1,5.782,3.414)">
        <g id="Path" transform="matrix(1,0,0,1,13,0)">
            <g transform="matrix(1,0,0,1,24,0)">
                <path d="M31.758,46.916C32.498,23.429 24.586,9.582 1.841,0.435C-4.624,23.049 22.066,43.9 31.758,46.916Z" style="fill:rgb(209,211,212);stroke:black;stroke-width:4.79px;"/>
            </g>
            <path d="M117.441,86.72C118.181,67.434 113.31,59.65 109.654,54.084C105.945,48.892 97.045,40.732 86.11,40.39C75.769,40.066 73.282,45.782 63.742,46.127C62.178,28.755 75.289,19.222 75.289,19.222C75.289,19.222 71.704,14.155 68.738,12.917C64.472,16.708 52.73,29.353 55.447,45.625C46.669,43.947 40.473,38.923 31.252,40.737C18.69,43.209 8.335,50.804 2.433,67.47C-3.468,84.137 4.516,103.581 6.252,109.134C7.989,114.692 20.836,138.298 30.905,141.772C40.972,145.247 40.975,143.681 46.357,141.599C51.74,139.516 59.897,135.697 71.879,140.038C83.854,144.377 85.416,145.417 92.879,140.557C100.348,135.698 110.067,120.595 112.322,116.254C114.579,111.915 115.795,109.657 116.492,107.401C123.748,103.78 116.775,104.004 117.441,86.72Z" style="fill:rgb(209,211,212);stroke:black;stroke-width:4.79px;"/>
        </g>
        <g transform="matrix(1,0,0,1,4,112)">
            <path id="Shape" d="M145.932,115.67C150.717,115.687 155.312,113.799 158.701,110.422C162.091,107.045 163.996,102.457 163.996,97.672C163.998,79.399 163.998,51.162 163.998,32.839C163.998,28.065 162.102,23.487 158.726,20.111C155.35,16.735 150.772,14.839 145.998,14.839L131.16,14.839C128.951,14.839 127.16,13.048 127.16,10.839L127.16,1.409L10.13,1.409C10.13,1.409 10.388,121.948 10.425,139.622C10.428,140.985 11.125,142.254 12.275,142.987C17.487,146.005 34.196,151.737 69.279,151.737C105.104,151.737 121.118,144.063 125.703,140.598C126.614,139.842 127.141,138.72 127.141,137.536C127.16,133.711 127.16,124.848 127.16,119.612C127.16,118.537 127.593,117.507 128.361,116.755C129.129,116.002 130.168,115.591 131.243,115.613C135.644,115.675 140.917,115.684 145.932,115.67ZM127.16,35.864C127.16,34.538 127.687,33.266 128.624,32.328C129.562,31.391 130.834,30.864 132.16,30.864L144.898,30.864C146.224,30.864 147.496,31.391 148.434,32.328C149.371,33.266 149.898,34.538 149.898,35.864L149.898,94.049C149.898,95.375 149.371,96.647 148.434,97.585C147.496,98.522 146.224,99.049 144.898,99.049L132.16,99.049C130.834,99.049 129.562,98.522 128.624,97.585C127.687,96.647 127.16,95.375 127.16,94.049L127.16,35.864Z" style="fill:white;fill-rule:nonzero;stroke:black;stroke-width:4.79px;"/>
            <path id="Path1" serif:id="Path" d="M21.667,0.249L21.667,124.235C21.667,125.666 22.431,126.988 23.67,127.702C28.731,130.114 43.413,135.871 69.154,135.871C95.066,135.871 109.312,128.876 114.082,125.993C115.221,125.259 115.909,123.996 115.909,122.642C115.92,106.201 115.92,0.249 115.92,0.249L21.667,0.249Z" style="fill:rgb(251,176,64);"/>
            <g id="Path2" serif:id="Path" transform="matrix(1,0,0,0.849312,0,21.0375)">
                <path d="M35.521,0.249L35.521,113.065" style="fill:none;stroke:rgb(255,219,150);stroke-width:11.96px;stroke-linecap:round;stroke-linejoin:miter;"/>
            </g>
        </g>
        <g id="Path3" serif:id="Path" transform="matrix(1,0,0,1,-2,-2)">
            <path d="M94.773,139.692C94.773,137.692 93.596,135.304 91.663,134.105C88.518,132.202 86.059,129.283 84.721,125.805C59.13,126.666 35.772,122.172 24.005,118.999C20.984,118.143 17.924,117.432 14.834,116.869C7.791,115.472 2.438,109.287 2.438,101.851C2.438,93.666 8.932,87.015 17.046,86.724C18.611,78.067 26.167,71.495 35.275,71.495C45.517,71.495 53.819,79.799 53.819,90.04C53.819,92.195 53.43,94.258 52.755,96.184L52.81,96.193C55.097,89.04 61.793,83.857 69.706,83.857C77.568,83.857 84.228,88.979 86.554,96.065C86.487,95.426 86.453,94.776 86.453,94.118C86.453,83.466 95.087,74.832 105.737,74.832C114.359,74.832 121.656,80.491 124.125,88.294L125.806,87.856C128.004,86.617 130.535,85.901 133.238,85.901C141.607,85.901 148.392,92.686 148.389,101.053C148.389,108.719 142.698,115.054 135.31,116.065C133.637,116.302 131.996,116.728 130.419,117.335C126.028,118.99 121.538,120.362 117.002,121.494C116.776,123.73 116.11,125.836 115.093,127.725C113.253,131.177 112.428,135.08 112.713,138.982C112.711,139.218 112.72,140.454 112.72,140.692C112.72,145.648 108.704,148.664 103.744,148.664C98.791,148.664 94.773,144.649 94.773,139.692Z" style="fill:white;stroke:black;stroke-width:4.79px;stroke-linecap:round;"/>
        </g>
    </g>
</svg>