<svg version="1.1" viewBox="0.0 0.0 187.65616797900262 113.39370078740157" fill="none" stroke="none" stroke-linecap="square" stroke-miterlimit="10" xmlns:xlink="http://www.w3.org/1999/xlink" xmlns="http://www.w3.org/2000/svg"><clipPath id="p.0"><path d="m0 0l187.65617 0l0 113.3937l-187.65617 0l0 -113.3937z" clip-rule="nonzero"/></clipPath><g clip-path="url(#p.0)"><path fill="#000000" fill-opacity="0.0" d="m0 0l187.65617 0l0 113.3937l-187.65617 0z" fill-rule="evenodd"/><g filter="url(#shadowFilter-p.1)"><use xlink:href="#p.1" transform="matrix(1.0 0.0 0.0 1.0 0.0 2.0)"/></g><defs><filter id="shadowFilter-p.1" filterUnits="userSpaceOnUse"><feGaussianBlur in="SourceAlpha" stdDeviation="2.0" result="blur"/><feComponentTransfer in="blur" color-interpolation-filters="sRGB"><feFuncR type="linear" slope="0" intercept="0.0"/><feFuncG type="linear" slope="0" intercept="0.0"/><feFuncB type="linear" slope="0" intercept="0.0"/><feFuncA type="linear" slope="0.5" intercept="0"/></feComponentTransfer></filter></defs><g id="p.1"><defs><linearGradient id="p.2" gradientUnits="userSpaceOnUse" gradientTransform="matrix(10.20750017422515 0.0 0.0 10.20750017422515 0.0 0.0)" spreadMethod="pad" x1="0.6655852909187749" y1="0.31561582701378876" x2="0.6655483156810289" y2="10.523116001171969"><stop offset="0.0" stop-color="#3177ee"/><stop offset="1.0" stop-color="#113d8a"/></linearGradient></defs><path fill="url(#p.2)" d="m103.745865 15.829906c1.2349167 0 1.8523712 1.2349148 1.8523712 3.7047462c0 4.1163883 -2.2017822 10.58773 -6.605362 19.414024c-0.29676056 -3.4079819 -0.44514465 -6.2320175 -0.44514465 -8.4720955c0 -9.76445 1.7327118 -14.646675 5.1981354 -14.646675zm47.55861 -12.607628c-1.3497925 0 -2.733078 0.34941483 -4.149887 1.0482426c-5.7629395 2.7091556 -11.377502 7.533942 -16.843674 14.474361c-4.4705887 5.8778133 -8.94117 12.966614 -13.411758 21.266397c-4.882225 9.4676895 -8.409874 16.231007 -10.582939 20.289951c-3.771759 7.055298 -6.772888 11.377502 -9.003395 12.966614c2.5847015 -4.1163864 3.87706 -9.20443 3.87706 -15.264133c0 -1.177475 -0.24890137 -3.4558449 -0.7466965 -6.8351135c-0.4977951 -3.3792686 -0.89507294 -6.480915 -1.1918335 -9.304947c5.7054977 -9.821888 8.55825 -17.087786 8.55825 -21.797697c0 -3.23567 -1.2923508 -4.853506 -3.87706 -4.853506c-0.6509628 0 -1.3880844 0.26804543 -2.2113647 0.80413055c-2.9389038 1.7039948 -5.025818 5.3465176 -6.2607346 10.927568c-0.8807144 4.0015106 -1.3210678 7.8881474 -1.3210678 11.659903c0 3.7621841 0.11487579 6.701092 0.34462738 8.816723c-3.1112213 5.466175 -6.6388702 10.908421 -10.582947 16.326736c-6.117134 8.519962 -11.119026 13.603222 -15.005661 15.249767c-0.64138794 0.29676056 -0.9620819 0.5935211 -0.9620819 0.8902893c0 0.29676056 0.08615875 0.44514465 0.25846863 0.44514465c2.125206 0 6.744171 -4.5328064 13.856903 -13.598427c5.351303 -6.7010956 9.558632 -12.492756 12.621986 -17.37498c0.11487579 1.646553 0.6126709 4.824787 1.4933853 9.5346985c0.6509628 4.0589447 0.97644806 7.304188 0.97644806 9.735729c0 2.4411163 -0.32548523 4.164253 -0.97644806 5.1694183c-0.46907043 0.11487579 -0.7036133 0.36377716 -0.7036133 0.74668884c0 0.3829193 0.05744171 0.57437897 0.1723175 0.57437897c2.4123917 0 6.7633133 -5.6480637 13.0527725 -16.944191c1.177475 -2.0581932 3.3074646 -5.9208946 6.389969 -11.588104c3.0920715 -5.6767807 5.523613 -10.046848 7.2946167 -13.110207c5.7629395 -9.707012 11.468445 -16.88197 17.1165 -21.524868c4.4035797 -3.4079847 8.285431 -5.1119766 11.645554 -5.1119766c4.0589447 0 6.0884094 1.9672489 6.0884094 5.9017477l-0.52537537 2.880206l0 0c-2.3648834 0.9902582 -4.4858246 2.3851423 -6.3628387 4.184661l-0.1723175 0c-2.115631 0 -3.9392853 0.83763504 -5.4709625 2.512909c-1.5316772 1.6752758 -2.2975159 3.5994453 -2.2975159 5.7725143c0 4.413147 1.8810883 8.003017 5.64328 10.769611c1.1200409 0.8232765 2.8383942 2.0151138 5.15506 3.575512c2.326233 1.5603981 4.049362 2.7809525 5.169403 3.6616707c3.7047577 2.757019 5.557129 6.313385 5.557129 10.669098c0 3.1207962 -1.2636414 6.0932083 -3.7909088 8.917236c-2.5272675 2.8240356 -5.38002 4.882225 -8.558258 6.1745834c-1.2923431 0.41163635 -2.8527374 0.7323303 -4.681183 0.9620819c-0.41163635 0 -0.61746216 0.17710114 -0.61746216 0.5313034c0 0.18188477 0.14837646 0.27282715 0.44514465 0.27282715c4.298279 0 8.5056 -1.780571 12.621994 -5.341728c4.116379 -3.5611496 6.174576 -7.4286423 6.174576 -11.602463c0 -4.1738205 -1.8810883 -7.821129 -5.64328 -10.941925c-5.829956 -3.9440765 -9.362381 -6.385189 -10.597305 -7.3233376c-3.8196106 -2.8814735 -5.729431 -6.3516846 -5.729431 -10.410627c0 -1.7614326 0.5887451 -3.4654255 1.7662201 -5.1119766c1.234909 -1.5316811 2.7330933 -2.3836746 4.494522 -2.5559883l0 0c-1.9433136 2.1156292 -2.914978 4.4657993 -2.914978 7.0505066c0 3.8866348 2.0007477 7.179743 6.0022583 9.879324c1.0626068 0.7084007 2.857544 1.8571587 5.3848114 3.4462776c2.5272675 1.5891151 4.437088 2.8527489 5.729431 3.790905c4.0589447 2.824028 6.0884247 6.5287743 6.0884247 11.114239c0 7.4765053 -4.4083557 12.976185 -13.225082 16.49905c-5.1215515 2.115631 -9.946335 3.1734467 -14.474365 3.1734467c-4.528015 0 -8.4673 -1.3402252 -11.817856 -4.0206604c-3.3505402 -2.6708603 -5.025818 -6.428253 -5.025818 -11.27219c0 -4.853508 1.8523712 -8.7257805 5.5571136 -11.616825c3.4654236 -2.8144608 7.5818176 -4.2216873 12.349167 -4.2216873l1.4933777 0c0.94773865 0 1.4216003 -0.062229156 1.4216003 -0.18667603c0 -0.46907425 -1.3833008 -0.7036133 -4.1499023 -0.7036133c-4.997101 0 -9.395889 1.6321907 -13.196365 4.8965836c-3.7909012 3.2643929 -5.6863556 7.4717216 -5.6863556 12.621986c0 5.1406937 2.3549576 9.065628 7.064865 11.77478c3.7621918 2.230507 8.831085 3.3457565 15.206696 3.3457565c6.385193 0 12.373093 -1.646553 17.963715 -4.939659c6.7010956 -3.9345016 10.051651 -9.1661415 10.051651 -15.69492c0 -4.824787 -1.9720459 -8.855011 -5.916107 -12.090683c-4.700348 -2.9389114 -8.376373 -5.293865 -11.028091 -7.064869c-3.9919434 -2.6995811 -5.9879 -5.844309 -5.9879 -9.434181c0 -1.589117 0.41163635 -3.1160088 1.234909 -4.580675c2.699585 -4.7673492 7.725403 -7.151024 15.077454 -7.151024c2.6517181 0 5.0354004 0.38292122 7.1510315 1.1487598c3.0537872 1.0530262 4.580673 2.6421452 4.580673 4.7673473c0 1.4646683 -0.8232727 2.5655632 -2.4698334 3.3026829c-1.6465454 0.73711777 -3.4654083 1.1056805 -5.456604 1.1056805c-5.88739 0 -10.448914 -1.0578175 -13.684586 -3.1734467c-0.057434082 -0.06701279 -0.16275024 -0.10051727 -0.3159027 -0.10051727c-0.14360046 0 -0.21539307 0.062223434 -0.21539307 0.18667412c0 0.11487579 0.06222534 0.22975159 0.18666077 0.34462738c1.8188782 1.2923546 4.0828857 2.2065754 6.792038 2.7426624c2.5847168 0.64138985 5.05455 0.9620838 7.4095 0.9620838c2.35495 0 4.413147 -0.34941292 6.174576 -1.0482407c2.4698334 -0.8902893 3.7047424 -2.3023033 3.7047424 -4.2360497c0 -1.0051632 -0.354187 -1.948103 -1.0625916 -2.8288174c-2.2879486 -2.8814716 -6.729828 -4.3222055 -13.325607 -4.3222055c-3.337906 0 -6.3659973 0.5138922 -9.08429 1.5416708l0 0c0.044937134 -0.20180702 0.08959961 -0.41893482 0.13400269 -0.65138245c0.32546997 -1.7135639 0.4882202 -2.8910418 0.4882202 -3.5324335c0 -2.2400799 -0.5887451 -4.125959 -1.7662201 -5.6576366c-1.0626068 -1.5221055 -2.7091522 -2.2831583 -4.9396667 -2.2831583zm-88.39699 5.02582c-0.8232727 0 -1.2349129 0.29197693 -1.2349129 0.8759289c0 0.18188572 0.14359283 0.3302679 0.43078232 0.4451437c3.178234 0.5935259 5.590626 3.1543016 7.237179 7.6823244c-1.1200409 -0.18188858 -2.2352905 -0.27283096 -3.3457565 -0.27283096c-4.7673492 0 -9.386318 1.4263744 -13.856903 4.279127c-4.470585 2.8527527 -7.677536 6.3995457 -9.620857 10.640379c-1.4072266 3.1686592 -2.1108437 6.0501328 -2.1108437 8.644409c0 2.5847092 0.24889755 4.6141853 0.74669266 6.088421c0.49779892 1.4646683 1.541256 2.699585 3.130371 3.7047462c1.3593636 0.9381561 3.1255798 1.4072304 5.298649 1.4072304c2.1730652 0 4.8487167 -1.0721703 8.026951 -3.2165222c3.1782303 -2.153923 5.4709625 -4.403576 6.8781967 -6.7489586c0.12445068 -0.23932648 0.1866684 -0.44514465 0.1866684 -0.61745834c0 -0.18188858 -0.062217712 -0.27283096 -0.1866684 -0.27283096c-0.11487579 0 -0.25847626 0.11966324 -0.43078613 0.3589859c-1.7710037 2.4123955 -3.8627014 4.4418716 -6.275097 6.0884247c-2.4123917 1.6465492 -4.781708 2.4698296 -7.1079445 2.4698296c-2.3166618 0 -4.197754 -0.7036133 -5.643276 -2.1108437c-1.4359512 -1.4168015 -2.153923 -3.7143173 -2.153923 -6.8925514c0 -5.590626 2.0438309 -10.750467 6.1315002 -15.4795265c4.0876656 -4.7386303 8.898094 -7.1079445 14.431282 -7.1079445c2.5272713 0 4.762562 0.61745834 6.7058754 1.8523731c0.9381561 3.829197 1.4072342 8.553467 1.4072342 14.1728115c0 5.6097717 -1.0290985 12.353947 -3.087288 20.232513c-1.1200409 4.413151 -2.8719025 10.324467 -5.2555733 17.733967c-2.3836746 7.4094925 -3.575512 11.425362 -3.575512 12.047607c0 0.6222458 0.057437897 0.93336487 0.17231369 0.93336487c0.12445068 0 0.27283096 -0.1483841 0.44514465 -0.44514465c3.829197 -6.4139023 6.8446846 -14.383415 9.046474 -23.908543c2.211357 -9.5346985 3.3170395 -18.504585 3.3170395 -26.909676c0 -4.7673473 -0.35420227 -9.032114 -1.0625992 -12.7943l0 0c3.87706 3.4079838 5.81559 9.170923 5.81559 17.288822c0 4.4705887 -0.8519974 9.91283 -2.5559921 16.326733c-1.1200333 3.87706 -2.6804352 8.711418 -4.6811905 14.503082c-1.9911804 5.8012314 -2.9867706 8.859802 -2.9867706 9.175705c0 0.32548523 0.23453522 0.48822784 0.7036133 0.48822784c0.1723175 0 0.34941864 -0.08615875 0.5313034 -0.25847626c5.2268524 -10.118645 8.429016 -16.647423 9.606491 -19.586334c3.0633621 -7.4094925 4.5950394 -14.407352 4.5950394 -20.993565c0 -11.411007 -3.9727936 -18.236547 -11.918373 -20.476627c-1.7614288 -6.2320166 -4.346138 -9.348024 -7.7541237 -9.348024zm-36.48411 29.724134c-1.091322 0 -1.814085 0.7658386 -2.1682816 2.2975159c-0.995594 3.829193 -3.082508 8.39072 -6.2607365 13.684589c-0.35419846 0.64138794 -0.62224007 1.139183 -0.80413055 1.4933853c-0.17231369 0.35419846 -0.36377716 0.6796799 -0.57437897 0.97644806c-0.20103264 0.28718948 -0.3589878 0.5504494 -0.4738636 0.7897682c0 0.2297554 0.16274261 0.3446312 0.48822212 0.3446312c0.3254795 0 1.9002342 -2.4411125 4.72427 -7.3233376c1.7614288 -2.9963455 2.8479614 -5.1119766 3.2596035 -6.3468933l0 0c0 3.5898705 -0.61745834 7.1941032 -1.8523731 10.812691c-1.2349148 3.6185913 -3.001133 7.8689995 -5.2986507 12.7512245l-5.4709625 11.817856c-3.4654255 7.466934 -5.198134 13.08149 -5.198134 16.843674l0 0.27283478c0 2.9389114 1.1056805 5.509262 3.317041 7.7110443c2.2017899 2.2113647 4.7146997 3.317047 7.5387297 3.317047c1.1104698 0 2.5033398 -0.39728546 4.17861 -1.1918411c1.6848488 -0.79455566 2.8192482 -1.7231369 3.4031982 -2.785736l0 0c-3.178236 1.943306 -5.8826065 2.9149704 -8.11311 2.9149704c-3.4175568 0 -5.126335 -2.5320663 -5.126335 -7.596176c0 -5.054535 1.297142 -11.229111 3.8914204 -18.523735c0.17231369 -0.46907043 0.49301147 -1.5125275 0.9620857 -3.1303635c0.46907425 -1.617836 1.732708 -4.8965836 3.790903 -9.83625c6.6532307 -4.882225 11.15732 -9.616066 13.512276 -14.20153l0 0c-0.29676056 3.2356758 -0.44514465 5.734226 -0.44514465 7.4956512c0 4.355713 1.2349167 6.5335693 3.7047462 6.5335693c2.4698334 0 4.7338448 -1.4120178 6.792038 -4.2360497l0 -0.17231369c0 -0.35419846 -0.08615875 -0.5313034 -0.25847244 -0.5313034c0.057437897 0 -0.047863007 0.11966705 -0.31590652 0.35898972c-0.26804733 0.22975159 -0.8567848 0.7275429 -1.7662163 1.4933891c-0.9094353 0.7658386 -1.8045082 1.1487579 -2.6852264 1.1487579c-1.7710037 0 -2.6565018 -1.4120216 -2.6565018 -4.2360497c0 -4.1738205 0.6509628 -8.467308 1.9528885 -12.880459c1.110466 -1.4742393 1.665699 -3.0920715 1.665699 -4.853504c0 -0.65096664 -0.46907806 -0.97644806 -1.4072266 -0.97644806c-0.9381523 0 -1.6130447 0.20582199 -2.0246887 0.61745834c-1.0051651 1.3019257 -1.7997246 4.011078 -2.3836746 8.127468c-3.2931118 5.466175 -7.4094944 10.08036 -12.349157 13.842541c1.8188667 -5.4661713 3.0825005 -9.199638 3.790905 -11.200394c1.5316753 -4.5280266 2.2975178 -8.261494 2.2975178 -11.2003975c0 -2.9484825 -0.5456619 -4.422722 -1.636982 -4.422722z" fill-rule="evenodd"/></g></g></svg>