<svg width="81" height="48" viewBox="0 0 81 48" fill="none" xmlns="http://www.w3.org/2000/svg">
<g clip-path="url(#clip0_450_101)">
<path d="M19.0273 12.6317H34.0839V13.8246H20.4075V22.8027H33.2684V23.9956H20.4075V33.8527H34.2408V35.0456H19.0273V12.6317ZM35.4328 12.6317H37.0325L44.1217 22.4888L51.3677 12.6317L61.2234 0.111023L45.0314 23.5247L53.3752 35.0456H51.7127L44.1217 24.5607L36.4993 35.0456H34.8681L43.2747 23.5247L35.4328 12.6317ZM53.9712 13.8246V12.6317H71.1295V13.8246H63.2247V35.0456H61.8446V13.8246H53.9712Z" fill="#4B5563"/>
<path d="M0.19043 12.6317H1.91567L25.7057 48.1173L15.8744 35.0455L1.63335 14.3269L1.57062 35.0455H0.19043V12.6317Z" fill="#4B5563"/>
<path d="M70.9896 33.4927C71.2749 33.4927 71.483 33.2749 71.483 32.9934C71.483 32.712 71.2749 32.4942 70.9896 32.4942C70.7076 32.4942 70.4961 32.712 70.4961 32.9934C70.4961 33.2749 70.7076 33.4927 70.9896 33.4927ZM72.3458 32.1792C72.3458 33.0102 72.9467 33.553 73.8228 33.553C74.756 33.553 75.32 32.9934 75.32 32.0218V28.6009H74.5681V32.0184C74.5681 32.5579 74.2961 32.846 73.8161 32.846C73.3864 32.846 73.0944 32.578 73.0843 32.1792H72.3458ZM76.3036 32.1357C76.3573 33.0001 77.079 33.553 78.1533 33.553C79.3013 33.553 80.0197 32.9733 80.0197 32.0486C80.0197 31.3215 79.6102 30.9194 78.6165 30.6882L78.0828 30.5576C77.4517 30.4102 77.1965 30.2125 77.1965 29.8674C77.1965 29.4318 77.5926 29.147 78.1868 29.147C78.7508 29.147 79.1402 29.4251 79.2107 29.8707H79.9425C79.8989 29.0565 79.1805 28.4836 78.1969 28.4836C77.1395 28.4836 76.4345 29.0565 76.4345 29.9176C76.4345 30.6279 76.834 31.0501 77.7101 31.2545L78.3345 31.4053C78.9757 31.556 79.2577 31.7772 79.2577 32.1457C79.2577 32.5746 78.8146 32.8862 78.2103 32.8862C77.5624 32.8862 77.1126 32.5947 77.0488 32.1357H76.3036Z" fill="#4B5563"/>
</g>
<defs>
<clipPath id="clip0_450_101">
<rect width="80" height="48" fill="white" transform="translate(0.112305)"/>
</clipPath>
</defs>
</svg>
