<svg width="28" height="32" viewBox="0 0 28 32" fill="none" xmlns="http://www.w3.org/2000/svg">
<path d="M26.1614 24.5649C25.9906 22.7985 25.4478 21.5069 24.5868 20.5805L24.5868 20.5805C23.8406 19.7774 22.8311 19.2222 21.5486 18.8828L21.5744 17.91C24.931 17.2093 27.3665 14.4499 27.3665 10.2733C27.3665 7.28162 26.3804 4.89134 24.436 3.24179C22.4825 1.58457 19.5125 0.633057 15.4674 0.633057H0.633789V6.31314H13.9593C15.8136 6.31314 17.2629 6.70825 18.2561 7.48269L18.2561 7.48271C19.2633 8.26814 19.7546 9.40713 19.7546 10.7783C19.7546 12.313 19.2701 13.4421 18.2416 14.1659C17.2423 14.8692 15.7906 15.1434 13.9593 15.1434H0.633789V20.9642H11.0186H13.5571C15.0067 20.9642 16.226 21.1624 17.1094 21.8999M26.1614 24.5649L17.1094 21.8999M26.1614 24.5649C26.4258 27.9461 26.4431 29.6469 26.4443 31.3669H18.7292C18.7318 31.1029 18.7367 30.8486 18.7418 30.5899L18.7419 30.5899V30.5833C18.7649 29.4127 18.7883 28.1848 18.5988 25.7252V25.7128L18.5966 25.6948M26.1614 24.5649L18.5966 25.6948M17.1094 21.8999C17.9993 22.6428 18.4667 23.8616 18.5966 25.6948M17.1094 21.8999L18.5966 25.6948" stroke="#4B5563"/>
<path d="M10.6519 31.3669H0.633789V27.2145H9.20185C9.84554 27.2145 10.1855 27.4454 10.3765 27.7007C10.5814 27.9746 10.6519 28.3277 10.6519 28.6067V31.3669Z" stroke="#4B5563"/>
</svg>
